REM DIRINDEX 1\2\6,1\2\7,1\2\8,1\2\9,1\3\10,1\3\11,1\4\12,1\4\13,1\4\14,1\5\15,1\5\16,1\5\17
REM DIRNAME cjc020,folder01,folder02,folder03,folder04,folder05,folder06,folder07,folder08,folder09,folder10,folder11,folder12,folder13,folder14,folder15,folder16
TITLE ""
FILE "1900_2_sec14_1384_1400.mp3" MP3
  TRACK 01 AUDIO
    TITLE "0:"
    INDEX 01 00:00:00
  TRACK 02 AUDIO
    TITLE "13:cjc020_4910"
    INDEX 01 00:00:17
  TRACK 03 AUDIO
    TITLE "0:"
    INDEX 01 00:01:32
  TRACK 04 AUDIO
    TITLE "14:cjc020_4911"
    INDEX 01 00:01:36
  TRACK 05 AUDIO
    TITLE "0:"
    INDEX 01 00:04:23
  TRACK 06 AUDIO
    TITLE "13:cjc020_4912"
    INDEX 01 00:05:03
  TRACK 07 AUDIO
    TITLE "0:"
    INDEX 01 00:06:10
  TRACK 08 AUDIO
    TITLE "14:cjc020_4913"
    INDEX 01 00:06:16
  TRACK 09 AUDIO
    TITLE "0:"
    INDEX 01 00:08:50
  TRACK 10 AUDIO
    TITLE "13:cjc020_4914"
    INDEX 01 00:09:28
  TRACK 11 AUDIO
    TITLE "0:"
    INDEX 01 00:10:49
  TRACK 12 AUDIO
    TITLE "14:cjc020_4915"
    INDEX 01 00:10:51
  TRACK 13 AUDIO
    TITLE "0:"
    INDEX 01 00:11:54
  TRACK 14 AUDIO
    TITLE "13:cjc020_4916"
    INDEX 01 00:12:34
  TRACK 15 AUDIO
    TITLE "0:"
    INDEX 01 00:13:53
  TRACK 16 AUDIO
    TITLE "14:cjc020_4917"
    INDEX 01 00:13:55
  TRACK 17 AUDIO
    TITLE "0:"
    INDEX 01 00:16:20
  TRACK 18 AUDIO
    TITLE "13:cjc020_4918"
    INDEX 01 00:16:71
  TRACK 19 AUDIO
    TITLE "0:"
    INDEX 01 00:18:13
  TRACK 20 AUDIO
    TITLE "14:cjc020_4919"
    INDEX 01 00:18:17
  TRACK 21 AUDIO
    TITLE "0:"
    INDEX 01 00:20:69
  TRACK 22 AUDIO
    TITLE "13:cjc020_4920"
    INDEX 01 00:21:45
  TRACK 23 AUDIO
    TITLE "0:"
    INDEX 01 00:23:06
  TRACK 24 AUDIO
    TITLE "14:cjc020_4921"
    INDEX 01 00:23:08
  TRACK 25 AUDIO
    TITLE "0:"
    INDEX 01 00:24:29
  TRACK 26 AUDIO
    TITLE "13:cjc020_4922"
    INDEX 01 00:25:09
  TRACK 27 AUDIO
    TITLE "0:"
    INDEX 01 00:26:32
  TRACK 28 AUDIO
    TITLE "14:cjc020_4923"
    INDEX 01 00:26:38
  TRACK 29 AUDIO
    TITLE "0:"
    INDEX 01 00:29:40
  TRACK 30 AUDIO
    TITLE "13:cjc020_4924"
    INDEX 01 00:30:18
  TRACK 31 AUDIO
    TITLE "0:"
    INDEX 01 00:31:27
  TRACK 32 AUDIO
    TITLE "14:cjc020_4925"
    INDEX 01 00:31:33
  TRACK 33 AUDIO
    TITLE "0:"
    INDEX 01 00:32:45
  TRACK 34 AUDIO
    TITLE "13:cjc020_4926"
    INDEX 01 00:33:26
  TRACK 35 AUDIO
    TITLE "0:"
    INDEX 01 00:34:73
  TRACK 36 AUDIO
    TITLE "14:cjc020_4927"
    INDEX 01 00:35:00
  TRACK 37 AUDIO
    TITLE "0:"
    INDEX 01 00:36:21
  TRACK 38 AUDIO
    TITLE "13:cjc020_4928"
    INDEX 01 00:37:01
  TRACK 39 AUDIO
    TITLE "0:"
    INDEX 01 00:38:31
  TRACK 40 AUDIO
    TITLE "14:cjc020_4929"
    INDEX 01 00:38:35
  TRACK 41 AUDIO
    TITLE "0:"
    INDEX 01 00:41:04
  TRACK 42 AUDIO
    TITLE "13:cjc020_4930"
    INDEX 01 00:41:61
  TRACK 43 AUDIO
    TITLE "0:"
    INDEX 01 00:43:23
  TRACK 44 AUDIO
    TITLE "14:cjc020_4931"
    INDEX 01 00:43:27
  TRACK 45 AUDIO
    TITLE "0:"
    INDEX 01 00:46:06
  TRACK 46 AUDIO
    TITLE "13:cjc020_4932"
    INDEX 01 00:46:64
  TRACK 47 AUDIO
    TITLE "0:"
    INDEX 01 00:47:66
  TRACK 48 AUDIO
    TITLE "14:cjc020_4933"
    INDEX 01 00:47:70
  TRACK 49 AUDIO
    TITLE "0:"
    INDEX 01 00:51:32
  TRACK 50 AUDIO
    TITLE "13:cjc020_4934"
    INDEX 01 00:52:10
  TRACK 51 AUDIO
    TITLE "0:"
    INDEX 01 00:53:29
  TRACK 52 AUDIO
    TITLE "14:cjc020_4935"
    INDEX 01 00:53:31
  TRACK 53 AUDIO
    TITLE "0:"
    INDEX 01 00:54:38
  TRACK 54 AUDIO
    TITLE "13:cjc020_4936"
    INDEX 01 00:55:22
  TRACK 55 AUDIO
    TITLE "0:"
    INDEX 01 00:56:57
  TRACK 56 AUDIO
    TITLE "14:cjc020_4937"
    INDEX 01 00:56:59
  TRACK 57 AUDIO
    TITLE "0:"
    INDEX 01 00:59:26
  TRACK 58 AUDIO
    TITLE "13:cjc020_4938"
    INDEX 01 01:00:06
  TRACK 59 AUDIO
    TITLE "0:"
    INDEX 01 01:01:38
  TRACK 60 AUDIO
    TITLE "14:cjc020_4939"
    INDEX 01 01:01:40
  TRACK 61 AUDIO
    TITLE "0:"
    INDEX 01 01:04:11
  TRACK 62 AUDIO
    TITLE "13:cjc020_4940"
    INDEX 01 01:04:66
  TRACK 63 AUDIO
    TITLE "0:"
    INDEX 01 01:06:00
  TRACK 64 AUDIO
    TITLE "14:cjc020_4941"
    INDEX 01 01:06:06
  TRACK 65 AUDIO
    TITLE "0:"
    INDEX 01 01:08:62
  TRACK 66 AUDIO
    TITLE "13:cjc020_4942"
    INDEX 01 01:09:42
  TRACK 67 AUDIO
    TITLE "0:"
    INDEX 01 01:11:05
  TRACK 68 AUDIO
    TITLE "14:cjc020_4943"
    INDEX 01 01:11:11
  TRACK 69 AUDIO
    TITLE "0:"
    INDEX 01 01:13:44
